<svg xmlns="http://www.w3.org/2000/svg" version="1.0" width="300.000000pt" height="300.000000pt" viewBox="-3 -3 306 306" preserveAspectRatio="xMidYMid meet" transform="matrix(1, 0, 0, 1, 0, 0)"><g id="deeditor_bgCarrier" stroke-width="0">
  <rect id="dee_c_e" x="-3" y="-3" width="306" height="306" rx="38.4" fill="#e3d0ff" strokewidth="0"/>
</g>

<g transform="translate(0.000000,300.000000) scale(0.100000,-0.100000)" fill="#4e6c50" stroke="none">
<path d="M1288 2966 c-43 -18 -92 -42 -111 -53 -18 -11 -40 -19 -49 -17 -9 1 -15 -3 -13 -9 4 -13 -124 -124 -138 -119 -5 1 -6 -2 -3 -7 5 -8 -20 -43 -66 -92 -10 -11 -18 -21 -17 -24 0 -3 -20 -47 -44 -98 -25 -51 -50 -117 -56 -147 -26 -128 -51 -305 -63 -442 -14 -178 -6 -246 53 -428 37 -112 40 -131 34 -188 -6 -52 -3 -75 16 -127 l22 -63 -22 -35 c-13 -22 -21 -51 -21 -81 0 -41 -2 -46 -22 -46 -13 0 -50 -14 -83 -31 l-60 -30 -170 7 c-190 7 -251 -2 -342 -53 -61 -34 -133 -96 -133 -114 0 -7 19 6 43 28 23 23 69 55 102 71 105 51 139 56 331 48 l173 -7 60 30 c88 45 101 45 162 0 30 -21 60 -39 66 -39 23 0 -6 44 -53 79 -62 47 -66 59 -43 111 l20 44 24 -29 c13 -17 27 -27 31 -23 4 5 0 16 -8 25 -49 57 -77 150 -75 258 0 79 -3 100 -31 170 -18 44 -40 121 -49 170 -14 79 -15 109 -5 245 12 156 17 195 54 395 54 296 286 552 579 635 61 18 62 19 24 19 -25 1 -70 -12 -117 -33z" fill="#4e6c50"/>
<path d="M1780 2981 c136 -44 279 -121 351 -189 45 -42 42 -67 -8 -77 -33 -6 -35 -8 -29 -38 7 -35 13 -97 10 -97 -2 0 -40 27 -86 60 -84 60 -238 141 -293 155 -146 35 -210 23 -410 -75 -159 -78 -262 -156 -351 -267 -97 -121 -134 -224 -134 -373 0 -102 25 -167 93 -247 21 -24 20 -52 -4 -135 -10 -38 -11 -55 -1 -81 10 -29 9 -42 -9 -93 -39 -109 -25 -349 24 -386 12 -9 26 -14 32 -11 5 4 7 3 3 -2 -4 -4 0 -14 10 -22 16 -12 16 -14 1 -26 -20 -15 -20 -109 0 -145 7 -13 10 -26 6 -30 -5 -6 -64 -27 -290 -103 -140 -47 -216 -92 -289 -169 -35 -37 -70 -80 -79 -96 -76 -143 -115 -227 -137 -297 -7 -21 -14 -37 -16 -34 -2 2 3 66 12 143 17 159 23 316 11 356 -7 28 -27 39 -27 16 0 -7 -7 -26 -15 -41 -20 -38 -33 -127 -39 -269 -9 -172 -16 -181 -51 -64 -16 53 -33 100 -38 103 -5 3 -6 -8 -1 -28 5 -19 9 -121 9 -227 l0 -192 55 0 55 0 33 96 c45 129 168 374 228 453 71 95 141 145 254 183 52 17 122 43 155 59 71 32 149 59 172 59 9 0 97 -26 197 -59 100 -32 224 -68 276 -80 52 -13 138 -38 191 -57 96 -35 197 -55 231 -46 9 2 40 -1 69 -8 28 -7 91 -13 140 -14 49 -2 92 -6 96 -9 3 -4 17 -7 30 -7 13 0 23 -6 23 -14 0 -11 9 -13 35 -9 23 4 43 0 59 -11 14 -9 37 -16 51 -16 14 0 25 -4 25 -9 0 -6 13 -18 29 -27 17 -10 27 -22 24 -27 -3 -4 4 -11 16 -14 11 -3 23 -14 27 -25 3 -11 12 -17 20 -14 16 6 34 -23 34 -53 0 -11 9 -25 19 -31 11 -6 22 -25 25 -47 9 -56 28 -213 30 -250 1 -23 1 -23 184 -23 l182 0 0 289 0 289 -72 67 c-101 93 -187 132 -423 190 -104 26 -202 54 -217 61 -38 19 -49 45 -38 83 10 34 0 78 -24 113 -18 26 -20 51 -6 76 15 27 107 274 160 432 53 155 72 253 64 329 -2 25 -9 127 -14 226 -8 153 -13 195 -38 278 -54 180 -178 342 -342 448 -13 8 -13 10 0 19 8 5 10 10 5 10 -6 0 -15 -4 -20 -8 -6 -5 -43 8 -83 29 -62 31 -71 39 -55 47 10 5 25 7 33 5 13 -4 13 -3 0 6 -11 7 -21 6 -37 -5 -20 -13 -27 -13 -59 1 -20 8 -53 15 -73 14 -35 -1 -35 -1 19 -18z m-119 -191 c20 0 28 -4 23 -11 -4 -8 0 -9 15 -4 13 4 21 2 21 -5 0 -7 7 -9 16 -6 9 3 28 -1 42 -9 15 -8 39 -19 55 -25 15 -5 26 -15 25 -22 -2 -8 8 -13 23 -14 21 -1 121 -61 165 -99 6 -5 30 -26 54 -45 37 -31 41 -39 36 -68 -4 -26 -2 -33 9 -28 9 3 12 0 9 -9 -5 -11 -10 -12 -25 -2 -22 14 -24 23 -6 31 6 3 2 3 -10 0 -15 -3 -25 1 -32 14 -5 10 -26 27 -45 37 -40 22 -50 41 -12 24 17 -8 29 -8 42 0 17 11 17 11 -4 6 -13 -4 -29 -2 -37 5 -7 6 -19 10 -27 9 -20 -5 -59 21 -52 33 5 7 2 9 -8 6 -17 -7 -53 28 -38 37 5 3 11 -4 15 -14 4 -13 12 -18 21 -14 13 5 13 7 2 14 -10 7 -10 9 0 9 6 0 12 5 12 11 0 6 -7 8 -16 5 -8 -3 -13 -2 -10 2 3 4 -5 14 -16 21 -18 11 -20 11 -15 -2 6 -15 -20 -33 -31 -22 -3 3 1 5 9 5 9 1 6 7 -9 20 -14 12 -21 24 -16 32 4 7 4 10 -1 6 -4 -4 -16 -3 -26 3 -12 6 -19 6 -19 0 0 -5 6 -11 13 -14 15 -5 -18 1 -53 9 -19 5 -22 4 -14 -5 6 -6 30 -15 54 -19 24 -4 45 -13 48 -21 5 -15 -14 -10 -88 21 -32 14 -41 22 -31 28 11 6 10 9 -5 13 -10 3 -1 4 21 2 22 -1 30 0 17 2 -12 2 -20 7 -18 11 2 4 -17 8 -43 8 -25 1 -39 0 -29 -3 20 -5 33 -33 15 -33 -7 0 -28 5 -47 10 -46 14 -120 19 -126 8 -3 -4 3 -5 12 -1 12 4 15 3 10 -5 -4 -7 -16 -12 -26 -12 -11 0 -66 -23 -123 -50 -66 -32 -112 -48 -123 -44 -14 4 -15 3 -6 -4 10 -7 7 -13 -13 -26 -14 -9 -30 -14 -36 -11 -5 4 -8 2 -7 -3 2 -6 -18 -26 -44 -46 -27 -20 -48 -42 -48 -48 0 -5 -7 -8 -15 -4 -8 3 -15 1 -15 -5 0 -6 -7 -8 -16 -5 -11 4 -14 1 -10 -12 4 -12 -4 -28 -24 -47 -16 -16 -30 -23 -30 -16 0 7 -5 9 -11 5 -8 -4 -7 -9 2 -15 10 -6 11 -11 3 -16 -14 -11 -74 -111 -74 -126 0 -8 -4 -7 -11 3 -8 12 -9 11 -5 -5 3 -11 0 -45 -7 -75 -6 -30 -11 -62 -11 -70 1 -8 2 -45 3 -82 1 -45 5 -67 12 -65 6 1 14 -4 17 -12 3 -8 0 -11 -7 -7 -6 4 -11 3 -11 -2 0 -18 13 -21 27 -6 14 13 18 12 36 -18 12 -18 20 -36 19 -40 -1 -5 1 -7 6 -7 18 3 32 -2 47 -18 16 -15 16 -18 1 -29 -15 -10 -15 -12 -1 -18 9 -3 13 -2 10 4 -3 6 1 13 10 16 14 6 14 9 3 16 -9 7 -7 7 7 2 37 -14 121 -16 181 -3 32 6 71 12 86 13 14 1 24 3 22 5 -5 6 76 42 101 45 11 1 30 8 43 15 12 6 44 15 70 18 43 5 57 1 137 -42 50 -26 79 -44 65 -40 -23 7 -51 8 -97 4 -10 -1 -45 2 -78 6 -54 6 -72 3 -180 -33 -198 -66 -255 -73 -357 -42 -56 17 -80 31 -117 68 -54 55 -85 113 -76 145 5 17 4 19 -4 7 -9 -12 -11 -9 -12 15 -3 56 0 150 6 181 13 75 94 233 116 227 4 -2 6 3 3 10 -6 18 84 102 113 104 20 2 22 -1 12 -19 -8 -15 -8 -19 1 -16 6 2 11 8 11 13 0 6 10 15 22 22 20 10 18 11 -18 8 l-40 -3 40 35 c53 46 187 124 202 118 7 -2 12 1 10 8 -1 7 6 11 16 11 10 -1 16 1 12 4 -18 19 221 87 263 76 8 -2 27 -4 43 -4z m202 -587 c-7 -2 -19 -2 -25 0 -7 3 -2 5 12 5 14 0 19 -2 13 -5z m-748 -15 c-32 -17 -85 -71 -85 -86 0 -7 -6 -12 -12 -9 -7 2 -12 9 -11 15 2 6 -4 9 -12 6 -8 -4 -15 -1 -15 5 0 6 9 11 19 11 11 0 38 16 61 35 23 19 49 35 58 35 14 -1 13 -3 -3 -12z m680 -5 c-65 -34 -93 -76 -105 -158 l-8 -50 -1 41 c-1 41 16 93 42 125 15 19 78 59 92 59 6 -1 -3 -8 -20 -17z m235 7 c8 -5 11 -10 5 -10 -5 0 -17 5 -25 10 -8 5 -10 10 -5 10 6 0 17 -5 25 -10z m-590 -36 c0 -2 -9 0 -20 6 -11 6 -20 13 -20 16 0 2 9 0 20 -6 11 -6 20 -13 20 -16z m729 -64 c10 0 10 -4 3 -12 -6 -7 -12 -26 -15 -43 -4 -29 -4 -28 -6 6 -1 25 -12 49 -38 80 l-37 44 40 -37 c22 -21 46 -38 53 -38z m-519 4 c16 -10 18 -13 5 -8 -42 15 -83 15 -118 0 -40 -16 -52 -6 -14 12 32 16 98 14 127 -4z m-449 -20 c-13 -16 -21 -41 -21 -63 0 -30 5 -40 29 -54 45 -27 85 -22 115 14 29 34 31 45 15 86 l-10 28 25 -24 c14 -13 28 -39 32 -57 6 -30 8 -32 31 -23 31 12 37 7 29 -24 -10 -41 -39 -63 -116 -87 -103 -32 -150 -36 -188 -16 -36 19 -62 56 -39 56 8 0 20 7 27 15 8 10 21 13 39 8 25 -6 25 -6 -6 21 -22 19 -33 37 -33 55 0 28 35 75 50 66 4 -3 10 2 14 10 3 8 10 15 16 15 6 0 2 -12 -9 -26z m-184 -16 c-3 -8 -6 -5 -6 6 -1 11 2 17 5 13 3 -3 4 -12 1 -19z m820 4 c-27 -30 -22 -87 9 -111 57 -45 139 -7 137 63 -1 20 -7 44 -15 53 -12 16 -11 16 10 1 65 -45 59 -112 -13 -136 -67 -22 -177 6 -188 48 -7 28 40 93 72 99 2 1 -3 -7 -12 -17z m-577 -12 c0 -5 -4 -10 -10 -10 -5 0 -10 5 -10 10 0 6 5 10 10 10 6 0 10 -4 10 -10z m630 -10 c0 -5 -4 -10 -10 -10 -5 0 -10 5 -10 10 0 6 5 10 10 10 6 0 10 -4 10 -10z m-873 -32 c-3 -7 -5 -2 -5 12 0 14 2 19 5 13 2 -7 2 -19 0 -25z m448 -67 c-22 -44 -26 -38 -7 10 9 23 18 37 20 31 2 -6 -4 -24 -13 -41z m167 37 c8 -7 18 -20 21 -29 5 -15 1 -15 -29 -6 -23 7 -48 7 -79 0 -47 -11 -52 -8 -32 18 23 30 91 39 119 17z m458 -112 c0 -2 -8 -10 -17 -17 -16 -13 -17 -12 -4 4 13 16 21 21 21 13z m-462 -32 c17 -5 21 -11 16 -23 -4 -9 -10 -38 -14 -66 -5 -45 -24 -91 -41 -105 -4 -3 -16 -23 -27 -45 -17 -34 -31 -116 -46 -280 -6 -60 -81 -152 -144 -176 -60 -23 -191 11 -285 75 -34 24 -67 41 -73 39 -6 -2 -14 6 -18 19 -9 36 -7 128 4 128 5 0 9 19 8 43 -3 99 2 122 37 176 25 38 33 57 25 65 -5 5 -10 20 -10 33 0 22 4 23 64 23 83 0 177 20 302 64 96 34 155 42 202 30z m259 -20 c-3 -3 -12 -4 -19 -1 -8 3 -5 6 6 6 11 1 17 -2 13 -5z m56 -11 c-7 -2 -21 -2 -30 0 -10 3 -4 5 12 5 17 0 24 -2 18 -5z m-988 -420 c-5 -56 -10 -81 -16 -72 -12 20 -11 96 2 144 17 57 22 27 14 -72z m199 -369 l51 -24 -42 0 c-24 0 -43 -4 -43 -9 0 -23 143 -108 333 -197 32 -16 60 -32 63 -36 9 -13 -81 -9 -168 8 -89 18 -131 38 -245 118 -87 61 -104 91 -79 142 15 32 19 35 48 29 17 -4 54 -18 82 -31z" fill="#4e6c50"/>
<path d="M1548 2773 c6 -2 18 -2 25 0 6 3 1 5 -13 5 -14 0 -19 -2 -12 -5z" fill="#4e6c50"/>
<path d="M1638 2773 c6 -2 18 -2 25 0 6 3 1 5 -13 5 -14 0 -19 -2 -12 -5z" fill="#4e6c50"/>
<path d="M1420 2740 c-9 -6 -10 -10 -3 -10 6 0 15 5 18 10 8 12 4 12 -15 0z" fill="#4e6c50"/>
<path d="M1454 2741 c3 -5 -1 -12 -10 -15 -9 -4 -14 -9 -11 -12 6 -7 47 18 47 28 0 5 -7 8 -16 8 -8 0 -13 -4 -10 -9z" fill="#4e6c50"/>
<path d="M1628 2743 c7 -3 16 -2 19 1 4 3 -2 6 -13 5 -11 0 -14 -3 -6 -6z" fill="#4e6c50"/>
<path d="M1388 2711 c11 -6 10 -10 -4 -15 -9 -3 -14 -9 -11 -12 3 -3 15 1 27 9 18 13 19 15 5 21 -23 9 -32 7 -17 -3z" fill="#4e6c50"/>
<path d="M1240 2650 c-14 -11 -20 -20 -13 -20 6 0 15 5 18 11 4 6 17 14 29 19 12 5 15 9 6 9 -8 0 -26 -8 -40 -19z" fill="#4e6c50"/>
<path d="M1953 2625 c0 -11 7 -14 21 -10 18 5 18 4 -3 -8 -20 -12 -21 -15 -6 -20 24 -10 35 -9 35 4 0 5 -5 7 -12 3 -7 -5 -8 -3 -3 6 7 11 12 9 23 -8 8 -12 21 -22 29 -22 17 0 -4 24 -46 52 -32 22 -38 22 -38 3z" fill="#4e6c50"/>
<path d="M1165 2600 c-3 -6 1 -7 9 -4 18 7 21 14 7 14 -6 0 -13 -4 -16 -10z" fill="#4e6c50"/>
<path d="M1165 2570 c-3 -6 1 -7 9 -4 18 7 21 14 7 14 -6 0 -13 -4 -16 -10z" fill="#4e6c50"/>
<path d="M2085 2530 c-3 -5 -13 -7 -23 -4 -12 4 -12 2 3 -7 27 -17 52 -18 52 -3 0 16 -24 26 -32 14z" fill="#4e6c50"/>
<path d="M1006 2454 c-17 -16 -13 -34 7 -34 8 0 8 3 -1 9 -10 6 -10 10 2 20 11 9 15 9 19 -1 4 -9 6 -9 6 -1 2 20 -17 24 -33 7z" fill="#4e6c50"/>
<path d="M939 1918 c-10 -19 -2 -51 15 -65 21 -18 21 -18 5 2 -9 11 -15 30 -14 43 1 19 -2 29 -6 20z" fill="#4e6c50"/>
<path d="M1674 1872 c3 -5 0 -13 -6 -15 -9 -4 -10 -6 -1 -6 17 -1 25 16 12 25 -7 4 -9 3 -5 -4z" fill="#4e6c50"/>
<path d="M1213 1923 c9 -2 23 -2 30 0 6 3 -1 5 -18 5 -16 0 -22 -2 -12 -5z" fill="#4e6c50"/>
<path d="M1298 1923 c7 -3 16 -2 19 1 4 3 -2 6 -13 5 -11 0 -14 -3 -6 -6z" fill="#4e6c50"/>
<path d="M1011 1374 c0 -11 3 -14 6 -6 3 7 2 16 -1 19 -3 4 -6 -2 -5 -13z" fill="#4e6c50"/>
<path d="M1240 2980 c8 -5 20 -10 25 -10 6 0 3 5 -5 10 -8 5 -19 10 -25 10 -5 0 -3 -5 5 -10z" fill="#4e6c50"/>
<path d="M2071 2643 c7 -12 15 -20 18 -17 3 2 -3 12 -13 22 -17 16 -18 16 -5 -5z" fill="#4e6c50"/>
<path d="M2360 2580 c-6 -11 -8 -20 -6 -20 3 0 10 9 16 20 6 11 8 20 6 20 -3 0 -10 -9 -16 -20z" fill="#4e6c50"/>
<path d="M382 368 c-11 -14 -20 -51 -42 -173 -5 -27 -16 -83 -24 -124 l-14 -74 126 5 c145 5 204 24 241 77 53 74 62 208 18 249 -35 33 -76 44 -187 49 -86 5 -108 3 -118 -9z m162 -131 c27 -20 12 -85 -21 -93 -33 -9 -36 -3 -28 55 7 53 18 61 49 38z" fill="#4e6c50"/>
<path d="M811 343 c-5 -10 -37 -85 -71 -168 -34 -82 -64 -156 -67 -162 -4 -10 36 -13 181 -13 l186 0 -5 28 c-9 44 -45 306 -45 320 0 9 -24 12 -85 12 -70 0 -86 -3 -94 -17z m69 -263 c0 -53 -2 -60 -19 -60 -11 0 -22 3 -24 8 -5 7 32 112 39 112 2 0 4 -27 4 -60z" fill="#4e6c50"/>
<path d="M1146 349 c-5 -17 -36 -294 -36 -326 0 -22 4 -23 78 -23 l79 0 11 133 c7 72 12 151 12 175 0 37 -3 42 -24 42 -13 0 -44 3 -69 6 -35 5 -48 3 -51 -7z" fill="#4e6c50"/>
<path d="M1620 318 c0 -5 -34 -116 -73 -240 l-25 -78 77 0 78 0 13 57 14 58 9 -57 9 -58 73 0 72 0 -7 38 c-18 85 -63 257 -69 264 -7 8 -171 23 -171 16z" fill="#4e6c50"/>
<path d="M1977 240 c-41 -35 -57 -85 -57 -174 l0 -66 80 0 80 0 0 75 c0 66 2 75 18 75 26 0 52 -31 52 -62 0 -30 11 -36 86 -44 42 -5 54 -4 55 7 10 129 -81 219 -220 219 -52 0 -65 -4 -94 -30z" fill="#4e6c50"/>
<path d="M2320 187 c0 -19 3 -68 6 -110 l7 -77 73 0 73 0 -6 37 -6 36 46 -6 c26 -4 58 -9 72 -13 24 -6 25 -5 25 47 0 30 -4 59 -8 65 -7 12 -207 54 -254 54 -25 0 -28 -4 -28 -33z" fill="#4e6c50"/>
</g>
</svg>